<svg xmlns="http://www.w3.org/2000/svg" width="23.979" height="19.973" viewBox="0 0 23.979 19.973"><g transform="translate(0 -42.773)"><g transform="translate(0 42.773)"><g transform="translate(0 0)"><path d="M20.421,42.773a3.562,3.562,0,0,0-3.558,3.558.9.9,0,0,0,1.794,0A1.764,1.764,0,1,1,20.421,48.1H.9a.9.9,0,1,0,0,1.794H20.421a3.558,3.558,0,1,0,0-7.116Z" transform="translate(0 -42.773)" fill="#2699fb"/></g></g><g transform="translate(0 51.892)"><path d="M22.724,237.486H.9a.9.9,0,1,0,0,1.794H22.724a.9.9,0,1,0,0-1.794Z" transform="translate(0 -237.486)" fill="#2699fb"/></g><g transform="translate(0 55.63)"><g transform="translate(0 0)"><path d="M20.421,317.293H.9a.9.9,0,1,0,0,1.794H20.421a1.764,1.764,0,1,1-1.764,1.764.9.9,0,0,0-1.794,0,3.558,3.558,0,1,0,3.558-3.558Z" transform="translate(0 -317.293)" fill="#2699fb"/></g></g></g></svg>