<svg xmlns="http://www.w3.org/2000/svg" width="40" height="40" viewBox="0 0 40 40"><g transform="translate(-145 -456.819)"><path d="M20,0A20,20,0,1,1,0,20,20,20,0,0,1,20,0Z" transform="translate(145 456.819)" fill="#bce0fd"/><g transform="translate(152.001 467.678)"><path d="M15.367,2.7a2.7,2.7,0,0,0-5.409,0v8.185a4.246,4.246,0,1,0,5.409,0V2.7Zm-2.7-1.622A1.623,1.623,0,0,1,14.284,2.7v7.4H13.277L13.2,3.482a.541.541,0,0,0-1.083,0v6.624s.2-.029-1.08,0V2.7a1.624,1.624,0,0,1,1.622-1.622Zm0,12.4a.689.689,0,1,1-.689.689A.69.69,0,0,1,12.663,13.481Zm3.164.68a3.164,3.164,0,1,1-5.01-2.568.541.541,0,0,0,.225-.439V10.66c.388.022.692-.055,1.08,0v1.824a1.772,1.772,0,1,0,1.083,0V10.66c.388-.055,1.439-.024,1.08,0v.5a.541.541,0,0,0,.225.439A3.174,3.174,0,0,1,15.826,14.162Z" transform="translate(0 0)" fill="#2699fb"/></g></g></svg>