<svg xmlns="http://www.w3.org/2000/svg" width="40" height="40" viewBox="0 0 40 40"><g transform="translate(-36 -433.819)"><circle cx="20" cy="20" r="20" transform="translate(36 433.819)" fill="#bce0fd"/><path d="M9.768,13.927a.7.7,0,0,1-.009.918,5.418,5.418,0,0,1-8.077-.06A6.577,6.577,0,0,1,0,10.324V10.15C0,7.956,1.662,5.853,3.129,4,4.124,2.738,5.153,1.436,5.153.649A.621.621,0,0,1,5.742,0,.621.621,0,0,1,6.33.649c0,.839,1.043,2.147,2.052,3.413.184.23.373.468.561.708a.7.7,0,0,1-.061.916.552.552,0,0,1-.831-.068c-.184-.235-.372-.471-.554-.7A20.38,20.38,0,0,1,5.731,2.483,21.508,21.508,0,0,1,4.017,4.85c-1.331,1.684-2.839,3.593-2.839,5.3v.174a4.8,4.8,0,0,0,4.564,5,4.311,4.311,0,0,0,3.194-1.405A.551.551,0,0,1,9.768,13.927Zm4.718-2.4c-.227,0-.535-.235-.845-.644a1.292,1.292,0,0,0-2.078,0c-.31.409-.618.644-.845.644s-.535-.235-.845-.644a1.292,1.292,0,0,0-2.078,0c-.31.409-.618.644-.845.644s-.535-.235-.845-.644a1.292,1.292,0,0,0-2.078,0c-.31.409-.618.644-.845.644a.652.652,0,0,0,0,1.3,2.3,2.3,0,0,0,1.749-1.11.186.186,0,0,1,.27,0,2.3,2.3,0,0,0,1.749,1.11A2.3,2.3,0,0,0,8.7,11.713a.186.186,0,0,1,.27,0,2.3,2.3,0,0,0,1.749,1.11,2.3,2.3,0,0,0,1.749-1.11.186.186,0,0,1,.27,0,2.3,2.3,0,0,0,1.749,1.11.652.652,0,0,0,0-1.3ZM7.794,7.634c-.31.409-.618.644-.845.644a.652.652,0,0,0,0,1.3A2.3,2.3,0,0,0,8.7,8.466a.186.186,0,0,1,.27,0,2.3,2.3,0,0,0,1.749,1.11,2.3,2.3,0,0,0,1.749-1.11.186.186,0,0,1,.27,0,2.3,2.3,0,0,0,1.749,1.11.652.652,0,0,0,0-1.3c-.227,0-.535-.235-.845-.644a1.292,1.292,0,0,0-2.078,0c-.31.409-.618.644-.845.644s-.535-.235-.845-.644a1.292,1.292,0,0,0-2.078,0Zm0,0" transform="translate(50 446.4)" fill="#2699fb"/></g></svg>