<svg xmlns="http://www.w3.org/2000/svg" xmlns:xlink="http://www.w3.org/1999/xlink" width="20" height="16" viewBox="0 0 20 16"><defs><clipPath id="a"><rect width="20" height="16" fill="none"/></clipPath></defs><g clip-path="url(#a)"><path d="M2.116,13.5,0,1.21A1.258,1.258,0,0,1,.382.318,1.211,1.211,0,0,1,1.21,0h7.07A2.761,2.761,0,0,1,9.324.153c.191.127-.064-.191,0,0l.533,3.542h8.551c.318,0,.754-.167,1.038.379s.236.362.236.744L18.409,13.5c0,.318-.3.637-.559.892a1.773,1.773,0,0,1-1.145.382H3.528a.944.944,0,0,1-.736-.382l-.306-.308Z" transform="translate(0.314 0.235)" fill="#2699fb"/><rect width="16" height="16" fill="none"/></g></svg>