<svg xmlns="http://www.w3.org/2000/svg" width="22.344" height="23.757" viewBox="0 0 22.344 23.757"><g transform="translate(8.379 19.303)"><path d="M13.888,20.985H9.7a.744.744,0,0,1,0-1.485h4.189a.744.744,0,0,1,0,1.485Z" transform="translate(-9 -19.5)" fill="#2699fb"/></g><g transform="translate(10.474)"><path d="M11.948,3.422a.722.722,0,0,1-.7-.742V.742a.7.7,0,1,1,1.4,0V2.68A.722.722,0,0,1,11.948,3.422Z" transform="translate(-11.25)" fill="#2699fb"/></g><g transform="translate(16.591 3.261)"><path d="M18.519,6.15a.672.672,0,0,1-.493-.218.776.776,0,0,1,0-1.05l1.288-1.37a.669.669,0,0,1,.988,0,.776.776,0,0,1,0,1.05l-1.288,1.37A.68.68,0,0,1,18.519,6.15Z" transform="translate(-17.821 -3.294)" fill="#2699fb"/></g><g transform="translate(19.125 11.136)"><path d="M23.063,12.735H21.241a.744.744,0,0,1,0-1.485h1.822a.744.744,0,0,1,0,1.485Z" transform="translate(-20.543 -11.25)" fill="#2699fb"/></g><g transform="translate(16.591 17.64)"><path d="M19.808,20.676a.672.672,0,0,1-.493-.218l-1.288-1.37a.776.776,0,0,1,0-1.05.669.669,0,0,1,.988,0l1.288,1.37a.776.776,0,0,1,0,1.05A.676.676,0,0,1,19.808,20.676Z" transform="translate(-17.821 -17.82)" fill="#2699fb"/></g><g transform="translate(3.068 17.64)"><path d="M3.993,20.676a.672.672,0,0,1-.493-.218.776.776,0,0,1,0-1.05l1.288-1.37a.669.669,0,0,1,.988,0,.776.776,0,0,1,0,1.05l-1.288,1.37A.676.676,0,0,1,3.993,20.676Z" transform="translate(-3.295 -17.82)" fill="#2699fb"/></g><g transform="translate(0 11.136)"><path d="M2.52,12.735H.7a.744.744,0,0,1,0-1.485H2.52a.744.744,0,0,1,0,1.485Z" transform="translate(0 -11.25)" fill="#2699fb"/></g><g transform="translate(3.068 3.261)"><path d="M5.282,6.15a.672.672,0,0,1-.493-.218L3.5,4.562a.776.776,0,0,1,0-1.05.669.669,0,0,1,.988,0l1.288,1.37a.776.776,0,0,1,0,1.05A.681.681,0,0,1,5.282,6.15Z" transform="translate(-3.295 -3.294)" fill="#2699fb"/></g><g transform="translate(10.706 7.424)"><path d="M15.457,12.449a.722.722,0,0,1-.7-.742A2.647,2.647,0,0,0,12.2,8.985a.744.744,0,0,1,0-1.485,4.093,4.093,0,0,1,3.957,4.207A.722.722,0,0,1,15.457,12.449Z" transform="translate(-11.5 -7.5)" fill="#2699fb"/></g><g transform="translate(4.656 4.951)"><path d="M12.681,23.808H10.353c-.785,0-1.629-.634-1.629-2.023V20.039A3.292,3.292,0,0,0,7.6,17.46a7.151,7.151,0,0,1-2.457-6.991A6.725,6.725,0,0,1,10.12,5.155a6.265,6.265,0,0,1,5.506,1.394,7.081,7.081,0,0,1,2.408,5.38,7.051,7.051,0,0,1-2.49,5.442,3.293,3.293,0,0,0-1.234,2.5v2.2A1.685,1.685,0,0,1,12.681,23.808ZM11.5,6.487a5.1,5.1,0,0,0-1.1.122,5.263,5.263,0,0,0-3.9,4.159,5.633,5.633,0,0,0,1.929,5.506,4.817,4.817,0,0,1,1.682,3.766v1.746c0,.09.011.539.233.539H12.68a.241.241,0,0,0,.233-.247v-2.2A4.8,4.8,0,0,1,14.68,16.2a5.656,5.656,0,0,0,.064-8.5A4.938,4.938,0,0,0,11.5,6.487Z" transform="translate(-5.001 -5.001)" fill="#2699fb"/></g></svg>