<svg xmlns="http://www.w3.org/2000/svg" width="16.765" height="23.746" viewBox="0 0 16.765 23.746"><path d="M27.863,5.109V3.918h.364a1.311,1.311,0,0,0,1.309-1.309v-1.3A1.311,1.311,0,0,0,28.227,0H16.088a1.311,1.311,0,0,0-1.309,1.309v1.3a1.311,1.311,0,0,0,1.309,1.309h.364V5.109a3.145,3.145,0,0,0-2.677,3.106V22.231h0c.183.093.2.519.549.763.244.172-.077.053.455.34.267.51,2.149.4,12.621.4A3.144,3.144,0,0,0,30.54,20.6V8.215A3.145,3.145,0,0,0,27.863,5.109Zm-12.157-2.5v-1.3a.383.383,0,0,1,.382-.382H28.227a.383.383,0,0,1,.382.382v1.3a.383.383,0,0,1-.382.382H16.088A.383.383,0,0,1,15.706,2.608Zm11.23,1.309V5.075H17.379V3.918ZM27.4,22.809,14.7,21.05c.039-.09.05-2.576,0-4.79-.018-.783-.049-1.582,0-2.387,0-.7,0-1.906,0-1.906s.084-.317,0-.317V8.215A2.216,2.216,0,0,1,16.915,6H27.4a2.216,2.216,0,0,1,2.213,2.2H24.082a2.26,2.26,0,0,0-2.257,2.257v2.1a.464.464,0,0,0,.927,0v-2.1a1.332,1.332,0,0,1,1.33-1.33h5.531v10.56H24.082a1.332,1.332,0,0,1-1.33-1.33v-2.1a.464.464,0,0,0-.927,0v2.1a2.26,2.26,0,0,0,2.257,2.257h5.531A2.216,2.216,0,0,1,27.4,22.809Zm0,0" transform="translate(-13.774)" fill="#2699fb"/><path d="M265.964,301.658a.464.464,0,1,0-.464-.464A.465.465,0,0,0,265.964,301.658Zm0,0" transform="translate(-257.45 -286.789)" fill="#2699fb" fill-rule="evenodd"/></svg>