<svg xmlns="http://www.w3.org/2000/svg" width="40" height="40" viewBox="0 0 40 40"><g transform="translate(-36 -375.819)"><path d="M20,0A20,20,0,1,1,0,20,20,20,0,0,1,20,0Z" transform="translate(36 375.819)" fill="#bce0fd"/><g transform="translate(-12.404 388.197)"><g transform="translate(58.605)"><path d="M68.014,5.838c-.007-.012-.015-.025-.024-.036l-4-5.609a.458.458,0,0,0-.746,0l-4,5.609c-.008.012-.016.024-.023.036a4.557,4.557,0,0,0,.035,4.607,5.015,5.015,0,0,0,8.731,0A4.557,4.557,0,0,0,68.014,5.838Zm-.83,4.149a4.1,4.1,0,0,1-7.142,0,3.6,3.6,0,0,1-.047-3.671l3.618-5.068,3.618,5.069A3.6,3.6,0,0,1,67.184,9.987Z" transform="translate(-58.605)" fill="#2699fb"/></g><g transform="translate(63.124 7.551)"><path d="M239.61,297.568a.459.459,0,0,0-.459.459A1.974,1.974,0,0,1,237.18,300a.459.459,0,1,0,0,.917,2.892,2.892,0,0,0,2.889-2.889A.459.459,0,0,0,239.61,297.568Z" transform="translate(-236.721 -297.568)" fill="#2699fb"/></g><text transform="translate(64.404 15.803)" fill="#2699fb" font-size="10" font-family="Arial-BoldMT, Arial" font-weight="700"><tspan x="0" y="0">pH</tspan></text></g></g></svg>