<svg xmlns="http://www.w3.org/2000/svg" width="40" height="40" viewBox="0 0 40 40"><g transform="translate(-144 -378.819)"><path d="M20,0A20,20,0,1,1,0,20,20,20,0,0,1,20,0Z" transform="translate(144 378.819)" fill="#bce0fd"/><g transform="translate(157.98 392.904)"><path d="M23.239,3.432v-.8h.244a.881.881,0,0,0,.88-.88V.88a.881.881,0,0,0-.88-.88H15.328a.881.881,0,0,0-.88.88v.873a.881.881,0,0,0,.88.88h.244v.8a2.113,2.113,0,0,0-1.8,2.087v9.416h0c.123.062.137.349.369.512.164.115-.052.036.305.229.18.343,1.444.27,8.479.27a2.112,2.112,0,0,0,2.11-2.11V5.519A2.113,2.113,0,0,0,23.239,3.432Zm-8.167-1.68V.88a.257.257,0,0,1,.257-.257h8.155A.257.257,0,0,1,23.74.88v.873a.257.257,0,0,1-.257.257H15.328A.257.257,0,0,1,15.072,1.752Zm7.544.88v.777H16.2V2.632Zm.311,12.691L14.4,14.141c.026-.061.034-1.73,0-3.218-.012-.526-.033-1.063,0-1.6,0-.468,0-1.281,0-1.281s.057-.213,0-.213V5.519a1.488,1.488,0,0,1,1.487-1.487h7.043a1.488,1.488,0,0,1,1.487,1.475H20.7a1.518,1.518,0,0,0-1.516,1.516V8.432a.311.311,0,1,0,.623,0V7.024A.9.9,0,0,1,20.7,6.13h3.716v7.094H20.7a.9.9,0,0,1-.894-.894V10.923a.311.311,0,1,0-.623,0v1.408A1.518,1.518,0,0,0,20.7,13.848h3.715A1.488,1.488,0,0,1,22.927,15.323Zm0,0" transform="translate(-13.774)" fill="#2699fb"/><path d="M265.811,301.353a.311.311,0,1,0-.311-.311A.312.312,0,0,0,265.811,301.353Zm0,0" transform="translate(-260.092 -291.365)" fill="#2699fb" fill-rule="evenodd"/></g></g></svg>