<svg xmlns="http://www.w3.org/2000/svg" width="17.23" height="22.347" viewBox="0 0 17.23 22.347"><g transform="translate(0)"><path d="M74.79,10.042c-.013-.021-.026-.042-.041-.063L67.862.33a.788.788,0,0,0-1.283,0L59.69,9.979c-.014.02-.028.041-.04.063a7.839,7.839,0,0,0,.061,7.925,8.627,8.627,0,0,0,15.018,0A7.839,7.839,0,0,0,74.79,10.042Zm-1.428,7.137a7.05,7.05,0,0,1-12.285,0A6.2,6.2,0,0,1,61,10.864L67.22,2.146l6.224,8.718A6.2,6.2,0,0,1,73.362,17.179Z" transform="translate(-58.605)" fill="#2699fb"/><g transform="translate(7.774 12.988)"><path d="M241.69,297.568a.789.789,0,0,0-.789.789,3.4,3.4,0,0,1-3.391,3.391.789.789,0,0,0,0,1.577,4.975,4.975,0,0,0,4.969-4.969A.789.789,0,0,0,241.69,297.568Z" transform="translate(-236.721 -297.568)" fill="#2699fb"/></g></g></svg>